<mxfile host="Electron" modified="2024-04-06T14:29:06.821Z" agent="Mozilla/5.0 (Windows NT 10.0; Win64; x64) AppleWebKit/537.36 (KHTML, like Gecko) draw.io/24.1.0 Chrome/120.0.6099.109 Electron/28.1.0 Safari/537.36" etag="OEwppOy5pqLQ_S5wFk6T" version="24.1.0" type="device">
  <diagram name="Página-1" id="qtjvpakHEQLGuEF0Oujh">
    <mxGraphModel dx="2247" dy="830" grid="1" gridSize="10" guides="1" tooltips="1" connect="1" arrows="1" fold="1" page="1" pageScale="1" pageWidth="827" pageHeight="1169" background="#CCE5FF" math="0" shadow="0">
      <root>
        <mxCell id="0" />
        <mxCell id="1" parent="0" />
        <mxCell id="T688lGHbkPj6YygdyuN_-1" value="&lt;b style=&quot;font-size: 17px;&quot;&gt;&lt;font style=&quot;font-size: 17px;&quot; color=&quot;#000000&quot; face=&quot;Comic Sans MS&quot;&gt;8&lt;br&gt;Hacer un programa para ingresar una lista de 10 números, luego informar el porcentaje de positivos, negativos, y  ceros.&lt;/font&gt;&lt;/b&gt;" style="text;whiteSpace=wrap;html=1;fontFamily=Architects Daughter;fontSource=https%3A%2F%2Ffonts.googleapis.com%2Fcss%3Ffamily%3DArchitects%2BDaughter;" vertex="1" parent="1">
          <mxGeometry x="70" y="10" width="650" height="90" as="geometry" />
        </mxCell>
        <mxCell id="T688lGHbkPj6YygdyuN_-82" value="" style="group;aspect=fixed;" vertex="1" connectable="0" parent="1">
          <mxGeometry x="-60" y="140" width="687.5" height="950" as="geometry" />
        </mxCell>
        <mxCell id="T688lGHbkPj6YygdyuN_-7" value="" style="group;aspect=fixed;" vertex="1" connectable="0" parent="T688lGHbkPj6YygdyuN_-82">
          <mxGeometry x="399" y="900" width="40" height="50" as="geometry" />
        </mxCell>
        <mxCell id="T688lGHbkPj6YygdyuN_-3" value="" style="strokeWidth=2;html=1;shape=mxgraph.flowchart.start_2;whiteSpace=wrap;rounded=0;labelBackgroundColor=none;strokeColor=#000000;align=center;verticalAlign=middle;fontFamily=Helvetica;fontSize=12;fontColor=default;fillColor=#d5e8d4;" vertex="1" parent="T688lGHbkPj6YygdyuN_-7">
          <mxGeometry width="40" height="50" as="geometry" />
        </mxCell>
        <mxCell id="T688lGHbkPj6YygdyuN_-5" value="&lt;b&gt;&lt;font color=&quot;#000000&quot; style=&quot;font-size: 17px;&quot; face=&quot;Comic Sans MS&quot;&gt;F&lt;/font&gt;&lt;/b&gt;" style="text;strokeColor=none;align=center;fillColor=none;html=1;verticalAlign=middle;whiteSpace=wrap;rounded=0;fontFamily=Architects Daughter;fontSource=https://fonts.googleapis.com/css?family=Architects+Daughter;" vertex="1" parent="T688lGHbkPj6YygdyuN_-7">
          <mxGeometry y="10" width="40" height="30" as="geometry" />
        </mxCell>
        <mxCell id="T688lGHbkPj6YygdyuN_-45" value="" style="line;strokeWidth=2;direction=south;html=1;hachureGap=4;fontFamily=Architects Daughter;fontSource=https://fonts.googleapis.com/css?family=Architects+Daughter;strokeColor=#000000;" vertex="1" parent="T688lGHbkPj6YygdyuN_-82">
          <mxGeometry x="414" y="650" width="10" height="40" as="geometry" />
        </mxCell>
        <mxCell id="T688lGHbkPj6YygdyuN_-48" value="" style="line;strokeWidth=2;direction=south;html=1;hachureGap=4;fontFamily=Architects Daughter;fontSource=https://fonts.googleapis.com/css?family=Architects+Daughter;strokeColor=#000000;" vertex="1" parent="T688lGHbkPj6YygdyuN_-82">
          <mxGeometry x="414" y="770" width="10" height="40" as="geometry" />
        </mxCell>
        <mxCell id="T688lGHbkPj6YygdyuN_-72" value="" style="group;aspect=fixed;" vertex="1" connectable="0" parent="T688lGHbkPj6YygdyuN_-82">
          <mxGeometry width="687.5" height="650" as="geometry" />
        </mxCell>
        <mxCell id="T688lGHbkPj6YygdyuN_-6" value="" style="group;aspect=fixed;" vertex="1" connectable="0" parent="T688lGHbkPj6YygdyuN_-72">
          <mxGeometry x="400" width="40" height="50" as="geometry" />
        </mxCell>
        <mxCell id="T688lGHbkPj6YygdyuN_-2" value="" style="strokeWidth=2;html=1;shape=mxgraph.flowchart.start_2;whiteSpace=wrap;rounded=0;labelBackgroundColor=none;strokeColor=#000000;align=center;verticalAlign=middle;fontFamily=Helvetica;fontSize=12;fontColor=default;fillColor=#d5e8d4;" vertex="1" parent="T688lGHbkPj6YygdyuN_-6">
          <mxGeometry width="40" height="50" as="geometry" />
        </mxCell>
        <mxCell id="T688lGHbkPj6YygdyuN_-4" value="&lt;b&gt;&lt;font color=&quot;#000000&quot; style=&quot;font-size: 17px;&quot; face=&quot;Comic Sans MS&quot;&gt;I&lt;/font&gt;&lt;/b&gt;" style="text;strokeColor=none;align=center;fillColor=none;html=1;verticalAlign=middle;whiteSpace=wrap;rounded=0;fontFamily=Architects Daughter;fontSource=https%3A%2F%2Ffonts.googleapis.com%2Fcss%3Ffamily%3DArchitects%2BDaughter;" vertex="1" parent="T688lGHbkPj6YygdyuN_-6">
          <mxGeometry y="10" width="40" height="30" as="geometry" />
        </mxCell>
        <mxCell id="T688lGHbkPj6YygdyuN_-9" value="" style="group;aspect=fixed;" vertex="1" connectable="0" parent="T688lGHbkPj6YygdyuN_-72">
          <mxGeometry y="100" width="687.5" height="550" as="geometry" />
        </mxCell>
        <mxCell id="T688lGHbkPj6YygdyuN_-10" value="" style="whiteSpace=wrap;html=1;aspect=fixed;rounded=0;labelBackgroundColor=none;strokeColor=#000000;strokeWidth=2;align=center;verticalAlign=middle;fontFamily=Helvetica;fontSize=12;fontColor=default;fillColor=#d5e8d4;" vertex="1" parent="T688lGHbkPj6YygdyuN_-9">
          <mxGeometry x="137.5" width="550" height="550" as="geometry" />
        </mxCell>
        <mxCell id="T688lGHbkPj6YygdyuN_-11" value="" style="group;aspect=fixed;" vertex="1" connectable="0" parent="T688lGHbkPj6YygdyuN_-9">
          <mxGeometry x="13.75" y="41.24999999999999" width="247.5" height="247.5" as="geometry" />
        </mxCell>
        <mxCell id="T688lGHbkPj6YygdyuN_-12" value="" style="ellipse;whiteSpace=wrap;html=1;aspect=fixed;rounded=0;labelBackgroundColor=none;strokeColor=#0F140C;strokeWidth=3;align=center;verticalAlign=middle;fontFamily=Helvetica;fontSize=12;fontColor=default;fillColor=#d5e8d4;" vertex="1" parent="T688lGHbkPj6YygdyuN_-11">
          <mxGeometry width="247.5" height="247.5" as="geometry" />
        </mxCell>
        <mxCell id="T688lGHbkPj6YygdyuN_-13" value="" style="endArrow=none;html=1;rounded=0;strokeColor=#0F140C;fontFamily=Helvetica;fontSize=12;fontColor=default;fillColor=#B2C9AB;strokeWidth=2;" edge="1" parent="T688lGHbkPj6YygdyuN_-11">
          <mxGeometry width="50" height="50" relative="1" as="geometry">
            <mxPoint x="237.59999999999997" y="69.29999999999998" as="sourcePoint" />
            <mxPoint x="9.899999999999997" y="69.29999999999998" as="targetPoint" />
          </mxGeometry>
        </mxCell>
        <mxCell id="T688lGHbkPj6YygdyuN_-14" value="" style="endArrow=none;html=1;rounded=0;strokeColor=#0F140C;fontFamily=Helvetica;fontSize=12;fontColor=default;fillColor=#B2C9AB;exitX=0.264;exitY=0.952;exitDx=0;exitDy=0;exitPerimeter=0;strokeWidth=2;" edge="1" parent="T688lGHbkPj6YygdyuN_-11" source="T688lGHbkPj6YygdyuN_-12">
          <mxGeometry width="50" height="50" relative="1" as="geometry">
            <mxPoint x="59.39999999999999" y="148.49999999999994" as="sourcePoint" />
            <mxPoint x="69.29999999999998" y="69.29999999999998" as="targetPoint" />
          </mxGeometry>
        </mxCell>
        <mxCell id="T688lGHbkPj6YygdyuN_-15" value="" style="endArrow=none;html=1;rounded=0;strokeColor=#0F140C;fontFamily=Helvetica;fontSize=12;fontColor=default;fillColor=#B2C9AB;exitX=0.728;exitY=0.948;exitDx=0;exitDy=0;exitPerimeter=0;strokeWidth=2;" edge="1" parent="T688lGHbkPj6YygdyuN_-11" source="T688lGHbkPj6YygdyuN_-12">
          <mxGeometry width="50" height="50" relative="1" as="geometry">
            <mxPoint x="148.49999999999994" y="168.29999999999998" as="sourcePoint" />
            <mxPoint x="180.17999999999995" y="69.29999999999998" as="targetPoint" />
          </mxGeometry>
        </mxCell>
        <mxCell id="T688lGHbkPj6YygdyuN_-16" value="&lt;font color=&quot;#000000&quot; size=&quot;1&quot; face=&quot;Comic Sans MS&quot;&gt;&lt;b style=&quot;font-size: 14px;&quot;&gt;x = 0&lt;/b&gt;&lt;/font&gt;" style="text;strokeColor=none;align=center;fillColor=none;html=1;verticalAlign=middle;whiteSpace=wrap;rounded=0;fontFamily=Architects Daughter;fontSource=https%3A%2F%2Ffonts.googleapis.com%2Fcss%3Ffamily%3DArchitects%2BDaughter;" vertex="1" parent="T688lGHbkPj6YygdyuN_-11">
          <mxGeometry x="10.25" y="117.75" width="50" height="20" as="geometry" />
        </mxCell>
        <mxCell id="T688lGHbkPj6YygdyuN_-19" value="&lt;font color=&quot;#000000&quot; size=&quot;1&quot; face=&quot;Comic Sans MS&quot;&gt;&lt;b style=&quot;font-size: 19px;&quot;&gt;x&lt;/b&gt;&lt;/font&gt;" style="text;strokeColor=none;align=center;fillColor=none;html=1;verticalAlign=middle;whiteSpace=wrap;rounded=0;fontFamily=Architects Daughter;fontSource=https://fonts.googleapis.com/css?family=Architects+Daughter;" vertex="1" parent="T688lGHbkPj6YygdyuN_-11">
          <mxGeometry x="105.25" y="25.75" width="40" height="30" as="geometry" />
        </mxCell>
        <mxCell id="T688lGHbkPj6YygdyuN_-23" value="" style="group;aspect=fixed;" vertex="1" connectable="0" parent="T688lGHbkPj6YygdyuN_-9">
          <mxGeometry x="360" y="110" width="160" height="53.34" as="geometry" />
        </mxCell>
        <mxCell id="T688lGHbkPj6YygdyuN_-8" value="" style="shape=trapezoid;perimeter=trapezoidPerimeter;whiteSpace=wrap;html=1;fixedSize=1;rounded=0;labelBackgroundColor=none;strokeColor=#121211;strokeWidth=2;align=center;verticalAlign=middle;fontFamily=Helvetica;fontSize=12;fontColor=default;fillColor=#d5e8d4;direction=west;container=0;" vertex="1" parent="T688lGHbkPj6YygdyuN_-23">
          <mxGeometry width="160" height="53.34" as="geometry">
            <mxRectangle x="-1020" y="-650" width="50" height="40" as="alternateBounds" />
          </mxGeometry>
        </mxCell>
        <mxCell id="T688lGHbkPj6YygdyuN_-21" value="&lt;font color=&quot;#000000&quot; size=&quot;1&quot; face=&quot;Comic Sans MS&quot;&gt;&lt;b style=&quot;font-size: 16px;&quot;&gt;num&lt;/b&gt;&lt;/font&gt;" style="text;strokeColor=none;align=center;fillColor=none;html=1;verticalAlign=middle;whiteSpace=wrap;rounded=0;fontFamily=Architects Daughter;fontSource=https://fonts.googleapis.com/css?family=Architects+Daughter;container=0;" vertex="1" parent="T688lGHbkPj6YygdyuN_-23">
          <mxGeometry y="6.6675" width="160" height="40.005" as="geometry" />
        </mxCell>
        <mxCell id="T688lGHbkPj6YygdyuN_-29" value="" style="group;aspect=fixed;" vertex="1" connectable="0" parent="T688lGHbkPj6YygdyuN_-9">
          <mxGeometry x="380" y="200" width="120" height="110" as="geometry" />
        </mxCell>
        <mxCell id="T688lGHbkPj6YygdyuN_-26" value="" style="rhombus;whiteSpace=wrap;html=1;rounded=0;labelBackgroundColor=none;strokeColor=#0F140C;strokeWidth=2;align=center;verticalAlign=middle;fontFamily=Helvetica;fontSize=12;fontColor=default;fillColor=#d5e8d4;" vertex="1" parent="T688lGHbkPj6YygdyuN_-29">
          <mxGeometry x="5" width="110" height="110" as="geometry" />
        </mxCell>
        <mxCell id="T688lGHbkPj6YygdyuN_-27" value="&lt;font color=&quot;#000000&quot; size=&quot;1&quot; face=&quot;Comic Sans MS&quot;&gt;&lt;b style=&quot;font-size: 14px;&quot;&gt;num &amp;gt; 0&lt;/b&gt;&lt;/font&gt;" style="text;strokeColor=none;align=center;fillColor=none;html=1;verticalAlign=middle;whiteSpace=wrap;rounded=0;fontFamily=Architects Daughter;fontSource=https://fonts.googleapis.com/css?family=Architects+Daughter;" vertex="1" parent="T688lGHbkPj6YygdyuN_-29">
          <mxGeometry y="40" width="120" height="30" as="geometry" />
        </mxCell>
        <mxCell id="T688lGHbkPj6YygdyuN_-30" value="" style="group;aspect=fixed;" vertex="1" connectable="0" parent="T688lGHbkPj6YygdyuN_-9">
          <mxGeometry x="474" y="320" width="120" height="110" as="geometry" />
        </mxCell>
        <mxCell id="T688lGHbkPj6YygdyuN_-31" value="" style="rhombus;whiteSpace=wrap;html=1;rounded=0;labelBackgroundColor=none;strokeColor=#0F140C;strokeWidth=2;align=center;verticalAlign=middle;fontFamily=Helvetica;fontSize=12;fontColor=default;fillColor=#d5e8d4;" vertex="1" parent="T688lGHbkPj6YygdyuN_-30">
          <mxGeometry x="5" width="110" height="110" as="geometry" />
        </mxCell>
        <mxCell id="T688lGHbkPj6YygdyuN_-32" value="&lt;font color=&quot;#000000&quot; size=&quot;1&quot; face=&quot;Comic Sans MS&quot;&gt;&lt;b style=&quot;font-size: 14px;&quot;&gt;num == 0&lt;/b&gt;&lt;/font&gt;" style="text;strokeColor=none;align=center;fillColor=none;html=1;verticalAlign=middle;whiteSpace=wrap;rounded=0;fontFamily=Architects Daughter;fontSource=https://fonts.googleapis.com/css?family=Architects+Daughter;" vertex="1" parent="T688lGHbkPj6YygdyuN_-30">
          <mxGeometry y="40" width="120" height="30" as="geometry" />
        </mxCell>
        <mxCell id="T688lGHbkPj6YygdyuN_-36" value="" style="group;aspect=fixed;" vertex="1" connectable="0" parent="T688lGHbkPj6YygdyuN_-9">
          <mxGeometry x="370" y="420" width="120" height="40" as="geometry" />
        </mxCell>
        <mxCell id="T688lGHbkPj6YygdyuN_-37" value="" style="rounded=0;whiteSpace=wrap;html=1;labelBackgroundColor=none;strokeColor=#0f100e;strokeWidth=2;align=center;verticalAlign=middle;fontFamily=Helvetica;fontSize=12;fontColor=default;fillColor=#d5e8d4;" vertex="1" parent="T688lGHbkPj6YygdyuN_-36">
          <mxGeometry width="120" height="40" as="geometry" />
        </mxCell>
        <mxCell id="T688lGHbkPj6YygdyuN_-38" value="&lt;font color=&quot;#000000&quot; size=&quot;1&quot; face=&quot;Comic Sans MS&quot;&gt;&lt;b style=&quot;font-size: 14px;&quot;&gt;con_ceros++&lt;/b&gt;&lt;/font&gt;" style="text;strokeColor=none;align=center;fillColor=none;html=1;verticalAlign=middle;whiteSpace=wrap;rounded=0;fontFamily=Architects Daughter;fontSource=https://fonts.googleapis.com/css?family=Architects+Daughter;" vertex="1" parent="T688lGHbkPj6YygdyuN_-36">
          <mxGeometry y="5" width="120" height="30" as="geometry" />
        </mxCell>
        <mxCell id="T688lGHbkPj6YygdyuN_-35" value="" style="group;aspect=fixed;" vertex="1" connectable="0" parent="T688lGHbkPj6YygdyuN_-9">
          <mxGeometry x="270" y="305" width="120" height="40" as="geometry" />
        </mxCell>
        <mxCell id="T688lGHbkPj6YygdyuN_-33" value="" style="rounded=0;whiteSpace=wrap;html=1;labelBackgroundColor=none;strokeColor=#0f100e;strokeWidth=2;align=center;verticalAlign=middle;fontFamily=Helvetica;fontSize=12;fontColor=default;fillColor=#d5e8d4;" vertex="1" parent="T688lGHbkPj6YygdyuN_-35">
          <mxGeometry width="120" height="40" as="geometry" />
        </mxCell>
        <mxCell id="T688lGHbkPj6YygdyuN_-34" value="&lt;font color=&quot;#000000&quot; size=&quot;1&quot; face=&quot;Comic Sans MS&quot;&gt;&lt;b style=&quot;font-size: 14px;&quot;&gt;con_positivos++&lt;/b&gt;&lt;/font&gt;" style="text;strokeColor=none;align=center;fillColor=none;html=1;verticalAlign=middle;whiteSpace=wrap;rounded=0;fontFamily=Architects Daughter;fontSource=https://fonts.googleapis.com/css?family=Architects+Daughter;" vertex="1" parent="T688lGHbkPj6YygdyuN_-35">
          <mxGeometry y="5" width="120" height="30" as="geometry" />
        </mxCell>
        <mxCell id="T688lGHbkPj6YygdyuN_-39" value="" style="group;aspect=fixed;" vertex="1" connectable="0" parent="T688lGHbkPj6YygdyuN_-9">
          <mxGeometry x="563.5" y="420" width="120" height="40" as="geometry" />
        </mxCell>
        <mxCell id="T688lGHbkPj6YygdyuN_-40" value="" style="rounded=0;whiteSpace=wrap;html=1;labelBackgroundColor=none;strokeColor=#0f100e;strokeWidth=2;align=center;verticalAlign=middle;fontFamily=Helvetica;fontSize=12;fontColor=default;fillColor=#d5e8d4;" vertex="1" parent="T688lGHbkPj6YygdyuN_-39">
          <mxGeometry width="120" height="40" as="geometry" />
        </mxCell>
        <mxCell id="T688lGHbkPj6YygdyuN_-41" value="&lt;font color=&quot;#000000&quot; size=&quot;1&quot; face=&quot;Comic Sans MS&quot;&gt;&lt;b style=&quot;font-size: 14px;&quot;&gt;con_negativos++&lt;/b&gt;&lt;/font&gt;" style="text;strokeColor=none;align=center;fillColor=none;html=1;verticalAlign=middle;whiteSpace=wrap;rounded=0;fontFamily=Architects Daughter;fontSource=https://fonts.googleapis.com/css?family=Architects+Daughter;" vertex="1" parent="T688lGHbkPj6YygdyuN_-39">
          <mxGeometry y="5" width="120" height="30" as="geometry" />
        </mxCell>
        <mxCell id="T688lGHbkPj6YygdyuN_-46" value="" style="line;strokeWidth=2;direction=south;html=1;hachureGap=4;fontFamily=Architects Daughter;fontSource=https://fonts.googleapis.com/css?family=Architects+Daughter;strokeColor=#000000;" vertex="1" parent="T688lGHbkPj6YygdyuN_-9">
          <mxGeometry x="435" y="163.34" width="10" height="36.66" as="geometry" />
        </mxCell>
        <mxCell id="T688lGHbkPj6YygdyuN_-44" value="" style="line;strokeWidth=2;direction=south;html=1;hachureGap=4;fontFamily=Architects Daughter;fontSource=https://fonts.googleapis.com/css?family=Architects+Daughter;strokeColor=#000000;" vertex="1" parent="T688lGHbkPj6YygdyuN_-9">
          <mxGeometry x="330" y="255" width="10" height="50" as="geometry" />
        </mxCell>
        <mxCell id="T688lGHbkPj6YygdyuN_-50" value="" style="line;strokeWidth=2;direction=south;html=1;hachureGap=4;fontFamily=Architects Daughter;fontSource=https://fonts.googleapis.com/css?family=Architects+Daughter;strokeColor=#000000;" vertex="1" parent="T688lGHbkPj6YygdyuN_-9">
          <mxGeometry x="529" y="253" width="10" height="70" as="geometry" />
        </mxCell>
        <mxCell id="T688lGHbkPj6YygdyuN_-57" value="" style="line;strokeWidth=2;html=1;perimeter=backbonePerimeter;points=[];outlineConnect=0;hachureGap=4;fontFamily=Architects Daughter;fontSource=https://fonts.googleapis.com/css?family=Architects+Daughter;strokeColor=#000000;" vertex="1" parent="T688lGHbkPj6YygdyuN_-9">
          <mxGeometry x="590" y="370" width="40" height="10" as="geometry" />
        </mxCell>
        <mxCell id="T688lGHbkPj6YygdyuN_-54" value="" style="line;strokeWidth=2;html=1;perimeter=backbonePerimeter;points=[];outlineConnect=0;hachureGap=4;fontFamily=Architects Daughter;fontSource=https://fonts.googleapis.com/css?family=Architects+Daughter;strokeColor=#000000;" vertex="1" parent="T688lGHbkPj6YygdyuN_-9">
          <mxGeometry x="430" y="370" width="50" height="10" as="geometry" />
        </mxCell>
        <mxCell id="T688lGHbkPj6YygdyuN_-71" value="&lt;font color=&quot;#000000&quot; size=&quot;1&quot; face=&quot;Comic Sans MS&quot;&gt;&lt;b style=&quot;font-size: 13px;&quot;&gt;F&lt;/b&gt;&lt;/font&gt;" style="text;strokeColor=none;align=center;fillColor=none;html=1;verticalAlign=middle;whiteSpace=wrap;rounded=0;fontFamily=Architects Daughter;fontSource=https://fonts.googleapis.com/css?family=Architects+Daughter;" vertex="1" parent="T688lGHbkPj6YygdyuN_-9">
          <mxGeometry x="519" y="230" width="30" height="30" as="geometry" />
        </mxCell>
        <mxCell id="T688lGHbkPj6YygdyuN_-68" value="&lt;font color=&quot;#000000&quot; size=&quot;1&quot; face=&quot;Comic Sans MS&quot;&gt;&lt;b style=&quot;font-size: 13px;&quot;&gt;V&lt;/b&gt;&lt;/font&gt;" style="text;strokeColor=none;align=center;fillColor=none;html=1;verticalAlign=middle;whiteSpace=wrap;rounded=0;fontFamily=Architects Daughter;fontSource=https%3A%2F%2Ffonts.googleapis.com%2Fcss%3Ffamily%3DArchitects%2BDaughter;" vertex="1" parent="T688lGHbkPj6YygdyuN_-9">
          <mxGeometry x="320" y="230" width="30" height="30" as="geometry" />
        </mxCell>
        <mxCell id="T688lGHbkPj6YygdyuN_-70" value="&lt;font color=&quot;#000000&quot; size=&quot;1&quot; face=&quot;Comic Sans MS&quot;&gt;&lt;b style=&quot;font-size: 13px;&quot;&gt;V&lt;/b&gt;&lt;/font&gt;" style="text;strokeColor=none;align=center;fillColor=none;html=1;verticalAlign=middle;whiteSpace=wrap;rounded=0;fontFamily=Architects Daughter;fontSource=https://fonts.googleapis.com/css?family=Architects+Daughter;" vertex="1" parent="T688lGHbkPj6YygdyuN_-9">
          <mxGeometry x="415" y="350" width="30" height="30" as="geometry" />
        </mxCell>
        <mxCell id="T688lGHbkPj6YygdyuN_-69" value="&lt;font color=&quot;#000000&quot; size=&quot;1&quot; face=&quot;Comic Sans MS&quot;&gt;&lt;b style=&quot;font-size: 13px;&quot;&gt;F&lt;/b&gt;&lt;/font&gt;" style="text;strokeColor=none;align=center;fillColor=none;html=1;verticalAlign=middle;whiteSpace=wrap;rounded=0;fontFamily=Architects Daughter;fontSource=https://fonts.googleapis.com/css?family=Architects+Daughter;" vertex="1" parent="T688lGHbkPj6YygdyuN_-9">
          <mxGeometry x="610.5" y="350" width="30" height="30" as="geometry" />
        </mxCell>
        <mxCell id="T688lGHbkPj6YygdyuN_-17" value="&lt;font color=&quot;#000000&quot; size=&quot;1&quot; face=&quot;Comic Sans MS&quot;&gt;&lt;b style=&quot;font-size: 14px;&quot;&gt;x++&lt;/b&gt;&lt;/font&gt;" style="text;strokeColor=none;align=center;fillColor=none;html=1;verticalAlign=middle;whiteSpace=wrap;rounded=0;fontFamily=Architects Daughter;fontSource=https://fonts.googleapis.com/css?family=Architects+Daughter;" vertex="1" parent="T688lGHbkPj6YygdyuN_-72">
          <mxGeometry x="190" y="255" width="60" height="30" as="geometry" />
        </mxCell>
        <mxCell id="T688lGHbkPj6YygdyuN_-18" value="&lt;font color=&quot;#000000&quot; size=&quot;1&quot; face=&quot;Comic Sans MS&quot;&gt;&lt;b style=&quot;font-size: 15px;&quot;&gt;x &amp;lt; 10&lt;/b&gt;&lt;/font&gt;" style="text;strokeColor=none;align=center;fillColor=none;html=1;verticalAlign=middle;whiteSpace=wrap;rounded=0;fontFamily=Architects Daughter;fontSource=https://fonts.googleapis.com/css?family=Architects+Daughter;" vertex="1" parent="T688lGHbkPj6YygdyuN_-72">
          <mxGeometry x="106.5" y="260" width="60" height="20" as="geometry" />
        </mxCell>
        <mxCell id="T688lGHbkPj6YygdyuN_-43" value="" style="line;strokeWidth=2;direction=south;html=1;hachureGap=4;fontFamily=Architects Daughter;fontSource=https://fonts.googleapis.com/css?family=Architects+Daughter;strokeColor=#000000;" vertex="1" parent="T688lGHbkPj6YygdyuN_-72">
          <mxGeometry x="626" y="560" width="10" height="40" as="geometry" />
        </mxCell>
        <mxCell id="T688lGHbkPj6YygdyuN_-47" value="" style="line;strokeWidth=2;direction=south;html=1;hachureGap=4;fontFamily=Architects Daughter;fontSource=https://fonts.googleapis.com/css?family=Architects+Daughter;strokeColor=#000000;" vertex="1" parent="T688lGHbkPj6YygdyuN_-72">
          <mxGeometry x="625" y="474" width="10" height="46" as="geometry" />
        </mxCell>
        <mxCell id="T688lGHbkPj6YygdyuN_-49" value="" style="line;strokeWidth=2;direction=south;html=1;hachureGap=4;fontFamily=Architects Daughter;fontSource=https://fonts.googleapis.com/css?family=Architects+Daughter;strokeColor=#000000;" vertex="1" parent="T688lGHbkPj6YygdyuN_-72">
          <mxGeometry x="426" y="474" width="10" height="46" as="geometry" />
        </mxCell>
        <mxCell id="T688lGHbkPj6YygdyuN_-51" value="" style="line;strokeWidth=2;direction=south;html=1;hachureGap=4;fontFamily=Architects Daughter;fontSource=https://fonts.googleapis.com/css?family=Architects+Daughter;strokeColor=#000000;" vertex="1" parent="T688lGHbkPj6YygdyuN_-72">
          <mxGeometry x="415" y="50" width="10" height="50" as="geometry" />
        </mxCell>
        <mxCell id="T688lGHbkPj6YygdyuN_-52" value="" style="line;strokeWidth=2;direction=south;html=1;hachureGap=4;fontFamily=Architects Daughter;fontSource=https://fonts.googleapis.com/css?family=Architects+Daughter;strokeColor=#000000;" vertex="1" parent="T688lGHbkPj6YygdyuN_-72">
          <mxGeometry x="427" y="560" width="10" height="40" as="geometry" />
        </mxCell>
        <mxCell id="T688lGHbkPj6YygdyuN_-53" value="" style="line;strokeWidth=2;html=1;perimeter=backbonePerimeter;points=[];outlineConnect=0;hachureGap=4;fontFamily=Architects Daughter;fontSource=https://fonts.googleapis.com/css?family=Architects+Daughter;strokeColor=#000000;" vertex="1" parent="T688lGHbkPj6YygdyuN_-72">
          <mxGeometry x="335" y="350" width="50" height="10" as="geometry" />
        </mxCell>
        <mxCell id="T688lGHbkPj6YygdyuN_-55" value="" style="line;strokeWidth=2;html=1;perimeter=backbonePerimeter;points=[];outlineConnect=0;hachureGap=4;fontFamily=Architects Daughter;fontSource=https://fonts.googleapis.com/css?family=Architects+Daughter;strokeColor=#000000;" vertex="1" parent="T688lGHbkPj6YygdyuN_-72">
          <mxGeometry x="431" y="595" width="199" height="10" as="geometry" />
        </mxCell>
        <mxCell id="T688lGHbkPj6YygdyuN_-56" value="" style="line;strokeWidth=2;html=1;perimeter=backbonePerimeter;points=[];outlineConnect=0;hachureGap=4;fontFamily=Architects Daughter;fontSource=https://fonts.googleapis.com/css?family=Architects+Daughter;strokeColor=#000000;" vertex="1" parent="T688lGHbkPj6YygdyuN_-72">
          <mxGeometry x="490" y="350" width="48" height="10" as="geometry" />
        </mxCell>
        <mxCell id="T688lGHbkPj6YygdyuN_-77" value="" style="group;aspect=fixed;" vertex="1" connectable="0" parent="T688lGHbkPj6YygdyuN_-82">
          <mxGeometry x="244" y="690" width="350" height="80" as="geometry" />
        </mxCell>
        <mxCell id="T688lGHbkPj6YygdyuN_-73" value="" style="rounded=0;whiteSpace=wrap;html=1;labelBackgroundColor=none;strokeColor=#0f100e;strokeWidth=2;align=center;verticalAlign=middle;fontFamily=Helvetica;fontSize=12;fontColor=default;fillColor=#d5e8d4;" vertex="1" parent="T688lGHbkPj6YygdyuN_-77">
          <mxGeometry width="350" height="80" as="geometry" />
        </mxCell>
        <mxCell id="T688lGHbkPj6YygdyuN_-76" value="&lt;font face=&quot;Comic Sans MS&quot; color=&quot;#000000&quot;&gt;&lt;span style=&quot;font-size: 13px;&quot;&gt;&lt;b&gt;porcentaje_positivos = con_positivos * 100 / (10)&lt;/b&gt;&lt;/span&gt;&lt;/font&gt;&lt;div&gt;&lt;font face=&quot;Comic Sans MS&quot; color=&quot;#000000&quot;&gt;&lt;span style=&quot;font-size: 13px;&quot;&gt;&lt;b&gt;porcentaje_negativos = con_negativos * 100 / (10)&lt;/b&gt;&lt;/span&gt;&lt;/font&gt;&lt;/div&gt;&lt;div&gt;&lt;font face=&quot;Comic Sans MS&quot; color=&quot;#000000&quot;&gt;&lt;span style=&quot;font-size: 13px;&quot;&gt;&lt;b&gt;porcentaje_ceros = con_ceros * 100 / (10)&lt;/b&gt;&lt;/span&gt;&lt;/font&gt;&lt;/div&gt;" style="text;strokeColor=none;align=left;fillColor=none;html=1;verticalAlign=middle;whiteSpace=wrap;rounded=0;fontFamily=Architects Daughter;fontSource=https://fonts.googleapis.com/css?family=Architects+Daughter;" vertex="1" parent="T688lGHbkPj6YygdyuN_-77">
          <mxGeometry x="10" y="10" width="330" height="60" as="geometry" />
        </mxCell>
        <mxCell id="T688lGHbkPj6YygdyuN_-78" value="" style="line;strokeWidth=2;direction=south;html=1;hachureGap=4;fontFamily=Architects Daughter;fontSource=https://fonts.googleapis.com/css?family=Architects+Daughter;strokeColor=#000000;" vertex="1" parent="T688lGHbkPj6YygdyuN_-82">
          <mxGeometry x="414" y="860" width="10" height="40" as="geometry" />
        </mxCell>
        <mxCell id="T688lGHbkPj6YygdyuN_-81" value="" style="group;aspect=fixed;" vertex="1" connectable="0" parent="T688lGHbkPj6YygdyuN_-82">
          <mxGeometry x="244" y="810" width="350" height="50" as="geometry" />
        </mxCell>
        <mxCell id="T688lGHbkPj6YygdyuN_-79" value="" style="shape=trapezoid;perimeter=trapezoidPerimeter;whiteSpace=wrap;html=1;fixedSize=1;rounded=0;labelBackgroundColor=none;strokeColor=#0F140C;strokeWidth=2;align=center;verticalAlign=middle;fontFamily=Helvetica;fontSize=12;fontColor=default;fillColor=#d5e8d4;" vertex="1" parent="T688lGHbkPj6YygdyuN_-81">
          <mxGeometry width="350" height="50" as="geometry" />
        </mxCell>
        <mxCell id="T688lGHbkPj6YygdyuN_-80" value="&lt;font style=&quot;font-size: 15px;&quot;&gt;&lt;b&gt;&lt;font color=&quot;#000000&quot; style=&quot;font-size: 15px;&quot; face=&quot;Comic Sans MS&quot;&gt;porcentaje_positivos,&amp;nbsp;&lt;/font&gt;&lt;/b&gt;&lt;b style=&quot;background-color: initial;&quot;&gt;&lt;font color=&quot;#000000&quot; style=&quot;font-size: 15px;&quot; face=&quot;Comic Sans MS&quot;&gt;porcentaje_negativos,&lt;/font&gt;&lt;/b&gt;&lt;/font&gt;&lt;div style=&quot;font-size: 15px;&quot;&gt;&lt;b&gt;&lt;font color=&quot;#000000&quot; style=&quot;font-size: 15px;&quot; face=&quot;Comic Sans MS&quot;&gt;porcentaje_ceros&lt;/font&gt;&lt;/b&gt;&lt;/div&gt;" style="text;strokeColor=none;align=center;fillColor=none;html=1;verticalAlign=middle;whiteSpace=wrap;rounded=0;fontFamily=Architects Daughter;fontSource=https%3A%2F%2Ffonts.googleapis.com%2Fcss%3Ffamily%3DArchitects%2BDaughter;" vertex="1" parent="T688lGHbkPj6YygdyuN_-81">
          <mxGeometry x="15" width="320" height="50" as="geometry" />
        </mxCell>
      </root>
    </mxGraphModel>
  </diagram>
</mxfile>
